<svg width="249" height="80" viewBox="0 0 249 80" fill="none" xmlns="http://www.w3.org/2000/svg">
<path d="M100.216 46L104.392 34.12H108.1L112.258 46H109.072L108.262 43.318H104.158L103.33 46H100.216ZM105.706 38.35L104.806 41.212H107.614L106.75 38.368L106.228 36.496H106.192L105.706 38.35Z" fill="#642E45"/>
<path d="M116.544 46V39.16C116.544 38.848 116.544 38.53 116.544 38.206C116.556 37.87 116.562 37.528 116.562 37.18C116.166 37.552 115.722 37.87 115.23 38.134C114.75 38.398 114.252 38.578 113.736 38.674L113.448 36.118C113.856 36.07 114.3 35.944 114.78 35.74C115.272 35.536 115.728 35.29 116.148 35.002C116.568 34.702 116.874 34.408 117.066 34.12H119.532V46H116.544Z" fill="#642E45"/>
<path d="M137.724 34.12V46H134.988V40.546L135.078 36.892H135.042L132.108 46H129.606L126.672 36.892H126.636L126.726 40.546V46H123.972V34.12H128.382L130.254 40.168L130.92 42.688H130.956L131.64 40.186L133.494 34.12H137.724Z" fill="#642E45"/>
<path d="M152.995 33.94C154.039 33.94 154.939 34.156 155.695 34.588C156.451 35.008 157.081 35.632 157.585 36.46L156.379 37.396C155.935 36.628 155.431 36.088 154.867 35.776C154.315 35.452 153.643 35.29 152.851 35.29C151.891 35.29 151.189 35.482 150.745 35.866C150.301 36.25 150.079 36.718 150.079 37.27C150.079 37.69 150.211 38.062 150.475 38.386C150.739 38.698 151.267 38.944 152.059 39.124L154.633 39.7C155.773 39.952 156.565 40.336 157.009 40.852C157.465 41.356 157.693 41.986 157.693 42.742C157.693 43.414 157.501 44.014 157.117 44.542C156.745 45.058 156.217 45.46 155.533 45.748C154.849 46.036 154.045 46.18 153.121 46.18C151.837 46.18 150.775 45.928 149.935 45.424C149.095 44.908 148.453 44.284 148.009 43.552L149.269 42.526C149.617 43.21 150.109 43.768 150.745 44.2C151.393 44.62 152.215 44.83 153.211 44.83C154.135 44.83 154.861 44.662 155.389 44.326C155.929 43.99 156.199 43.504 156.199 42.868C156.199 42.484 156.073 42.142 155.821 41.842C155.569 41.53 155.095 41.296 154.399 41.14L151.609 40.51C150.505 40.27 149.719 39.88 149.251 39.34C148.795 38.8 148.567 38.176 148.567 37.468C148.567 36.832 148.741 36.25 149.089 35.722C149.449 35.182 149.959 34.75 150.619 34.426C151.291 34.102 152.083 33.94 152.995 33.94Z" fill="#642E45"/>
<path d="M165.498 33.94C166.626 33.94 167.598 34.192 168.414 34.696C169.242 35.188 169.878 35.89 170.322 36.802C170.778 37.714 171.006 38.8 171.006 40.06C171.006 41.32 170.778 42.406 170.322 43.318C169.878 44.23 169.242 44.938 168.414 45.442C167.598 45.934 166.626 46.18 165.498 46.18C164.37 46.18 163.392 45.934 162.564 45.442C161.748 44.938 161.112 44.23 160.656 43.318C160.212 42.406 159.99 41.32 159.99 40.06C159.99 38.8 160.212 37.714 160.656 36.802C161.112 35.89 161.748 35.188 162.564 34.696C163.392 34.192 164.37 33.94 165.498 33.94ZM165.498 35.29C164.262 35.29 163.284 35.71 162.564 36.55C161.856 37.39 161.502 38.56 161.502 40.06C161.502 41.548 161.856 42.718 162.564 43.57C163.284 44.41 164.262 44.83 165.498 44.83C166.734 44.83 167.706 44.41 168.414 43.57C169.134 42.718 169.494 41.548 169.494 40.06C169.494 38.56 169.134 37.39 168.414 36.55C167.706 35.71 166.734 35.29 165.498 35.29Z" fill="#642E45"/>
<path d="M175.615 44.65H182.419V46H174.175V34.12H175.615V44.65Z" fill="#642E45"/>
<path d="M193.741 34.12V41.572C193.741 43.096 193.339 44.248 192.535 45.028C191.731 45.796 190.579 46.18 189.079 46.18C187.591 46.18 186.439 45.796 185.623 45.028C184.819 44.248 184.417 43.096 184.417 41.572V34.12H185.857V41.212C185.857 42.448 186.115 43.36 186.631 43.948C187.159 44.536 187.975 44.83 189.079 44.83C190.183 44.83 190.993 44.536 191.509 43.948C192.037 43.36 192.301 42.448 192.301 41.212V34.12H193.741Z" fill="#642E45"/>
<path d="M205.747 34.12V35.47H201.607V46H200.167V35.47H196.027V34.12H205.747Z" fill="#642E45"/>
<path d="M209.699 34.12V46H208.259V34.12H209.699Z" fill="#642E45"/>
<path d="M218.373 33.94C219.501 33.94 220.473 34.192 221.289 34.696C222.117 35.188 222.753 35.89 223.197 36.802C223.653 37.714 223.881 38.8 223.881 40.06C223.881 41.32 223.653 42.406 223.197 43.318C222.753 44.23 222.117 44.938 221.289 45.442C220.473 45.934 219.501 46.18 218.373 46.18C217.245 46.18 216.267 45.934 215.439 45.442C214.623 44.938 213.987 44.23 213.531 43.318C213.087 42.406 212.865 41.32 212.865 40.06C212.865 38.8 213.087 37.714 213.531 36.802C213.987 35.89 214.623 35.188 215.439 34.696C216.267 34.192 217.245 33.94 218.373 33.94ZM218.373 35.29C217.137 35.29 216.159 35.71 215.439 36.55C214.731 37.39 214.377 38.56 214.377 40.06C214.377 41.548 214.731 42.718 215.439 43.57C216.159 44.41 217.137 44.83 218.373 44.83C219.609 44.83 220.581 44.41 221.289 43.57C222.009 42.718 222.369 41.548 222.369 40.06C222.369 38.56 222.009 37.39 221.289 36.55C220.581 35.71 219.609 35.29 218.373 35.29Z" fill="#642E45"/>
<path d="M236.374 34.12V46H234.592L229.624 38.044L228.364 35.812H228.346L228.418 37.612V46H227.05V34.12H228.832L233.782 42.04L235.06 44.326H235.078L235.006 42.508V34.12H236.374Z" fill="#642E45"/>
<path d="M244.084 33.94C245.128 33.94 246.028 34.156 246.785 34.588C247.541 35.008 248.17 35.632 248.674 36.46L247.468 37.396C247.024 36.628 246.52 36.088 245.956 35.776C245.404 35.452 244.732 35.29 243.94 35.29C242.98 35.29 242.278 35.482 241.834 35.866C241.39 36.25 241.168 36.718 241.168 37.27C241.168 37.69 241.3 38.062 241.564 38.386C241.828 38.698 242.356 38.944 243.148 39.124L245.722 39.7C246.862 39.952 247.654 40.336 248.098 40.852C248.554 41.356 248.783 41.986 248.783 42.742C248.783 43.414 248.59 44.014 248.206 44.542C247.834 45.058 247.306 45.46 246.622 45.748C245.938 46.036 245.134 46.18 244.21 46.18C242.926 46.18 241.864 45.928 241.024 45.424C240.184 44.908 239.542 44.284 239.098 43.552L240.358 42.526C240.706 43.21 241.198 43.768 241.834 44.2C242.482 44.62 243.304 44.83 244.3 44.83C245.224 44.83 245.951 44.662 246.479 44.326C247.019 43.99 247.288 43.504 247.288 42.868C247.288 42.484 247.162 42.142 246.91 41.842C246.658 41.53 246.184 41.296 245.488 41.14L242.698 40.51C241.594 40.27 240.808 39.88 240.34 39.34C239.884 38.8 239.656 38.176 239.656 37.468C239.656 36.832 239.83 36.25 240.178 35.722C240.538 35.182 241.048 34.75 241.708 34.426C242.38 34.102 243.172 33.94 244.084 33.94Z" fill="#642E45"/>
<path d="M40 0C39.66 0 39.33 0.02 38.99 0.03C58.76 0.56 74.62 16.75 74.62 36.64C74.62 56.87 58.22 73.27 37.98 73.27C17.75 73.27 1.34 56.87 1.34 36.64C1.34 30.75 2.74 25.19 5.21 20.26C1.9 26.09 0 32.82 0 40C0 62.09 17.91 80 40 80C62.09 80 80 62.09 80 40C80 17.91 62.09 0 40 0Z" fill="#EEB8A7"/>
<path d="M38.99 0.03C38.66 0.02 38.32 0 37.99 0C23.64 0 11.23 8.25 5.21 20.26C2.74 25.19 1.34 30.75 1.34 36.64C1.34 56.87 17.74 73.27 37.98 73.27C58.21 73.27 74.62 56.87 74.62 36.64C74.62 16.74 58.76 0.56 38.99 0.03ZM60.12 34.79C59.91 35.21 59.78 35.42 59.57 35.84C58.11 38.9 57.1 40.45 55.63 42.93C55.55 43.1 55.34 43.39 55.26 43.56C54.96 44.06 54.71 44.44 54.33 44.86C54.04 45.28 53.62 45.66 53.12 45.7C52.62 45.74 52.07 45.37 51.82 44.9C51.02 43.64 50.98 41.63 50.98 40.21C50.94 38.45 51.14 33.33 51.27 31.65C51.31 30.89 51.35 30.14 51.44 29.39C51.52 28.85 51.48 28.3 51.52 27.76C51.52 27.46 51.39 27 51.1 26.88C51.06 26.84 51.06 26.84 51.01 26.84C50.3 27.51 49.67 28.3 49.08 29.19C47.45 31.62 46.06 34.22 44.97 36.94C44.84 37.41 44.64 38.12 44.64 38.12C44.56 38.45 44.43 38.74 44.3 39.04C44.26 39.08 44.21 39.17 44.21 39.2C44.17 39.29 44.13 39.33 44.08 39.37C44.04 39.41 44.04 39.41 44.04 39.41C43.96 39.49 43.87 39.54 43.74 39.54C43.58 39.54 43.45 39.45 43.37 39.37C43.37 39.33 43.37 39.33 43.37 39.29C43.33 39.25 43.28 39.16 43.28 39.08C43.15 37.86 42.99 36.65 42.78 35.47L42.74 35.13C42.66 34.71 42.57 34.29 42.49 33.87C42.28 33.07 42.36 32.03 41.27 31.98C41.02 31.94 40.77 32.06 40.6 32.23C40.22 32.61 39.97 33.03 39.68 33.49C39.47 33.91 39.26 34.33 39.09 34.71C38.92 35.01 38.75 35.34 38.58 35.63C38.45 35.88 38.33 36.13 38.2 36.34C37.86 36.93 37.57 37.56 37.28 38.19C37.28 38.19 37.06 38.61 37.03 38.65C36.95 38.82 36.86 39.03 36.78 39.19C36.61 39.44 36.48 39.69 36.32 39.95C36.24 40.12 35.99 40.2 35.77 40.2C35.64 40.2 35.56 40.2 35.48 40.16C35.27 40.08 35.15 39.95 35.02 39.83C34.85 39.54 34.72 39.24 34.72 38.91C34.64 38.28 34.64 37.65 34.56 37.15C34.52 36.85 34.47 35.43 34.47 35.22C34.47 34.89 34.43 34.55 34.43 34.17C34.39 33.79 34.3 33.37 34.1 33C34.06 32.91 33.97 32.83 33.93 32.75C33.6 32.29 33.05 32.45 32.68 32.83C32.46 33.04 32.34 33.25 32.21 33.42C32.14 33.55 32.07 33.66 32.01 33.77C31.86 37.28 31.64 40.79 31.54 44.32C31.5 45.71 31.46 47.13 31.5 48.52C31.5 49.78 31.66 51.12 31.25 52.38C31.17 52.63 31.04 52.88 30.83 53.05C30.33 53.38 29.62 53.09 29.32 52.59C28.73 51.58 28.94 49.78 28.94 48.65C28.94 47.14 29.03 45.63 29.07 44.12C29.13 42.59 29.22 41.07 29.29 39.54C28.87 40.57 28.46 41.57 28.07 42.53C27.52 43.91 27.06 45.29 26.47 46.64C26.09 47.56 25.68 48.48 25.13 49.28C24.71 49.87 23.88 49.79 23.54 49.07C22.78 47.61 22.75 46.14 22.61 44.5C22.53 43.45 22.4 42.4 22.4 41.31C22.32 38.96 22.44 36.65 22.49 34.34C22.49 33.97 22.36 33.72 22.11 33.55C21.35 35.98 20.18 38.21 19.09 40.47C18.96 40.76 18.8 41.06 18.63 41.35C18.34 41.9 17.87 42.49 17.2 42.49C16.74 42.53 16.28 42.16 16.11 41.61C15.57 39.72 15.82 38.04 16.28 36.2C16.78 34.06 17.54 31.97 19.55 30.79C20.23 30.37 20.85 30.46 21.44 31.04C21.53 31.08 21.57 31.17 21.57 31.25C21.57 31.42 21.49 31.55 21.36 31.55C20.57 31.42 20.02 31.93 19.6 32.6C19.3 33.06 19.06 33.52 18.81 34.03C18.56 34.53 18.35 35.08 18.22 35.63C17.8 37.01 17.51 38.48 17.51 39.99C17.51 40.37 17.72 41.29 18.26 40.91C18.51 40.75 18.68 40.49 18.85 40.24C19.69 38.77 21.2 35.75 22 32.98C22.08 32.52 22.25 32.06 22.5 31.64C22.66 31.31 23.12 31.26 23.38 31.51C23.63 31.76 23.76 32.01 23.84 32.35C23.93 32.73 24.01 33.15 24.01 33.57C24.05 34.53 24.05 35.54 24.09 36.5C24.09 38.81 24.13 41.12 24.05 43.42C24.01 44.64 24.05 45.89 24.05 47.11C24.05 47.36 24.09 47.61 24.13 47.87C24.17 48.08 24.29 48.29 24.51 48.41C25.1 48.75 25.51 47.74 25.85 47.24C26.32 46.15 26.99 44.43 27.78 42.46C28.29 41.17 28.78 39.95 29.34 38.59C29.4 37.42 29.43 36.25 29.45 35.08C29.45 32.94 29.74 30.8 29.74 28.63C29.78 26.37 29.87 24.1 29.87 21.88C29.91 21.17 29.79 20.79 29.25 20.66C28.87 21.08 28.41 21.41 27.86 21.71C27.61 21.84 27.4 21.88 27.24 21.75C27.07 21.62 27.15 21.45 27.32 21.29C28.2 20.74 28.92 20.03 29.41 19.49C29.62 19.11 29.91 18.78 30.21 18.44C30.34 18.27 30.58 18.19 30.8 18.06C31.26 17.85 31.93 18.1 32.18 18.6C32.48 19.15 32.6 19.77 32.6 20.4C32.6 23.71 32.26 27.07 32.13 30.43C32.1 31.32 32.07 32.21 32.03 33.09C32.06 33.04 32.09 32.99 32.12 32.94C32.2 32.81 32.25 32.73 32.25 32.73C32.46 32.48 32.71 32.23 33.05 32.06C33.26 31.93 33.52 31.85 33.72 31.85C34.06 31.85 34.35 31.98 34.6 32.22C35.06 32.64 35.36 33.15 35.48 33.65C35.61 34.2 35.69 34.74 35.77 35.16C35.9 35.87 35.99 36.62 36.11 37.34C36.19 37.76 36.24 38.22 36.32 38.68L36.45 38.64C36.66 38.51 36.87 38.14 37.07 37.84C37.07 37.84 37.7 36.71 37.95 36.25C38.08 36 38.2 35.75 38.33 35.54C38.5 35.24 38.67 34.91 38.79 34.61C39 34.19 39.21 33.77 39.42 33.39C39.8 32.72 40.17 32.18 40.8 31.63C40.84 31.59 40.84 31.59 40.88 31.59C40.97 31.5 41.09 31.42 41.22 31.34C41.64 31.09 42.1 31.04 42.56 31.3C43.02 31.55 43.36 31.89 43.57 32.31C43.86 32.93 44.11 33.61 44.24 34.28C44.28 34.61 44.32 34.95 44.37 35.29C44.41 35.62 44.5 35.96 44.54 36.34C44.54 36.59 44.83 36.34 45.13 35.84C46.13 33.49 47.4 31.18 48.82 29.04C49.62 27.87 50.54 26.82 51.5 26.02C51.58 25.93 51.67 25.85 51.75 25.77C51.83 25.73 51.96 25.68 52.09 25.68C52.26 25.68 52.39 25.72 52.51 25.85V25.89C52.59 25.97 52.67 26.05 52.72 26.18C52.88 26.73 52.97 27.35 52.97 27.94C52.97 28.57 52.84 29.16 52.84 29.79C52.84 30.5 52.75 31.17 52.63 31.88C52.55 32.56 52.55 33.22 52.47 33.89C52.34 35.23 52.39 36.62 52.34 37.96C52.3 39.85 51.96 41.69 52.09 43.58C52.13 44.12 52.26 44.75 52.72 45.01C52.76 45.05 52.76 45.05 52.76 45.05C53.1 45.22 53.47 45.14 53.77 44.97C54.31 44.51 54.65 44.05 54.99 43.42C55.07 43.29 55.24 42.96 55.37 42.83C56.83 40.31 58.13 38.14 59.56 35.03C59.73 34.73 59.69 34.78 59.81 34.61C59.89 34.48 59.89 34.48 60.02 34.53C60.16 34.54 60.16 34.71 60.12 34.79Z" fill="#642E45"/>
</svg>
