<svg width="33" height="24" viewBox="0 0 33 24" fill="none" xmlns="http://www.w3.org/2000/svg">
<g clip-path="url(#clip0_5404_152)">
<path fill-rule="evenodd" clip-rule="evenodd" d="M7.01223 12.082L15.7044 3.6843C16.2009 3.20463 15.4562 2.48517 14.9597 2.96483L5.89514 11.7223C5.76151 11.8514 5.71778 11.9978 5.73846 12.165C5.75563 12.2595 5.80488 12.3545 5.89514 12.4417L14.9597 21.1992C15.4562 21.6789 16.2009 20.9594 15.7044 20.4797L7.01223 12.082Z" fill="#5E519E" stroke="#5E519E"/>
<path d="M7.7002 11.9992C7.7002 11.8335 7.83453 11.6992 8.0002 11.6992H31.4002C31.5659 11.6992 31.7002 11.8335 31.7002 11.9992C31.7002 12.1649 31.5659 12.2992 31.4002 12.2992H8.00019C7.83453 12.2992 7.7002 12.1649 7.7002 11.9992Z" fill="#5E519E" stroke="#5E519E"/>
<path d="M0.8 0.5C0.965685 0.5 1.1 0.634315 1.1 0.8V23.2C1.1 23.3657 0.965686 23.5 0.8 23.5C0.634314 23.5 0.5 23.3657 0.5 23.2V0.8C0.5 0.634315 0.634315 0.5 0.8 0.5Z" fill="#5E519E" stroke="#5E519E"/>
</g>
<defs>
<clipPath id="clip0_5404_152">
<rect width="33" height="24" fill="white"/>
</clipPath>
</defs>
</svg>
