<svg width="33" height="24" viewBox="0 0 33 24" fill="none" xmlns="http://www.w3.org/2000/svg">
<g clip-path="url(#clip0_5404_156)">
<path fill-rule="evenodd" clip-rule="evenodd" d="M25.188 12.082L16.4958 3.6843C15.9993 3.20463 16.744 2.48517 17.2405 2.96483L26.3051 11.7223C26.4387 11.8514 26.4824 11.9978 26.4617 12.165C26.4446 12.2595 26.3953 12.3545 26.3051 12.4417L17.2405 21.1992C16.744 21.6789 15.9993 20.9594 16.4958 20.4797L25.188 12.082Z" fill="#5E519E" stroke="#5E519E"/>
<path d="M24.2 11.6992C24.3657 11.6992 24.5 11.8335 24.5 11.9992C24.5 12.1649 24.3657 12.2992 24.2 12.2992H0.799999C0.634326 12.2992 0.5 12.1649 0.5 11.9992C0.5 11.8335 0.634326 11.6992 0.799999 11.6992H24.2Z" fill="#5E519E" stroke="#5E519E"/>
<path d="M30.6002 0.8C30.6002 0.358172 30.9584 0 31.4002 0C31.842 0 32.2002 0.358172 32.2002 0.8V23.2C32.2002 23.6418 31.842 24 31.4002 24C30.9584 24 30.6002 23.6418 30.6002 23.2V0.8Z" fill="#5E519E"/>
</g>
<defs>
<clipPath id="clip0_5404_156">
<rect width="33" height="24" fill="white"/>
</clipPath>
</defs>
</svg>
